<svg width="316" height="137" viewBox="0 0 316 137" fill="none" xmlns="http://www.w3.org/2000/svg">
<g clip-path="url(#clip0)">
<path d="M285.041 56.5165H99.6425C98.8553 56.5165 98.1003 56.8291 97.5437 57.3854C96.987 57.9417 96.6743 58.6962 96.6743 59.483C96.6743 60.2697 96.987 61.0242 97.5437 61.5806C98.1003 62.1369 98.8553 62.4494 99.6425 62.4494H104.894V133.415C104.894 134.202 105.207 134.957 105.763 135.513C106.32 136.069 107.075 136.382 107.862 136.382C108.649 136.382 109.404 136.069 109.961 135.513C110.518 134.957 110.83 134.202 110.83 133.415L110.876 62.4494H259.677L273.397 133.415C273.397 134.202 273.71 134.957 274.266 135.513C274.823 136.069 275.578 136.382 276.365 136.382C277.152 136.382 277.907 136.069 278.464 135.513C279.021 134.957 279.333 134.202 279.333 133.415L280.197 62.4494H285.041C285.829 62.4494 286.584 62.1369 287.14 61.5806C287.697 61.0242 288.01 60.2697 288.01 59.483C288.01 58.6962 287.697 57.9417 287.14 57.3854C286.584 56.8291 285.829 56.5165 285.041 56.5165Z" fill="#CCCCCC"/>
<path d="M131.779 43.2986V55.8606H100.287C99.4622 55.8893 98.6393 55.7552 97.8658 55.4661C97.0923 55.1769 96.3833 54.7384 95.7794 54.1754C95.1755 53.6125 94.6885 52.9362 94.3461 52.1851C94.0038 51.434 93.8128 50.6229 93.7841 49.7981C93.7554 48.9732 93.8895 48.1508 94.1788 47.3778C94.4681 46.6048 94.9069 45.8963 95.4702 45.2927C96.0335 44.6892 96.7103 44.2025 97.4618 43.8603C98.2133 43.5181 99.0249 43.3273 99.8502 43.2986C99.9959 43.2935 100.142 43.2935 100.287 43.2986L131.779 43.2986Z" fill="#F2F2F2"/>
<path d="M132.552 55.7639C132.552 55.8921 132.501 56.0149 132.411 56.1055C132.32 56.1961 132.197 56.247 132.069 56.2471H99.7265C97.9707 56.2459 96.2873 55.5479 95.0462 54.3067C93.8051 53.0655 93.1079 51.3826 93.1079 49.6279C93.1079 47.8732 93.8051 46.1902 95.0462 44.949C96.2873 43.7078 97.9707 43.0099 99.7265 43.0087H132.069C132.132 43.0085 132.195 43.0209 132.254 43.0451C132.313 43.0693 132.367 43.1049 132.412 43.1497C132.457 43.1946 132.492 43.2479 132.517 43.3066C132.541 43.3653 132.554 43.4283 132.554 43.4918C132.554 43.5554 132.541 43.6183 132.517 43.677C132.492 43.7357 132.457 43.789 132.412 43.8339C132.367 43.8788 132.313 43.9144 132.254 43.9386C132.195 43.9628 132.132 43.9751 132.069 43.975H99.7265C98.2278 43.9772 96.7913 44.5738 95.7324 45.6337C94.6735 46.6936 94.0787 48.1301 94.0787 49.6279C94.0787 51.1256 94.6735 52.5622 95.7324 53.6221C96.7913 54.6819 98.2278 55.2785 99.7265 55.2808H132.069C132.197 55.2808 132.32 55.3318 132.411 55.4224C132.501 55.513 132.552 55.6358 132.552 55.7639Z" fill="#141719"/>
<path d="M131.779 46.1975H97.938C97.9124 46.1976 97.8879 46.1876 97.8696 46.1697C97.8514 46.1517 97.8411 46.1273 97.8408 46.1018C97.8406 46.0762 97.8505 46.0516 97.8684 46.0333C97.8863 46.015 97.9107 46.0046 97.9362 46.0042H131.779C131.805 46.0045 131.829 46.0148 131.847 46.0329C131.865 46.051 131.875 46.0754 131.875 46.1009C131.875 46.1263 131.865 46.1508 131.847 46.1689C131.829 46.187 131.805 46.1972 131.779 46.1975Z" fill="#CCCCCC"/>
<path d="M131.779 48.5167H97.938C97.9124 48.5168 97.8879 48.5068 97.8696 48.4889C97.8514 48.4709 97.8411 48.4465 97.8408 48.4209C97.8406 48.3954 97.8505 48.3707 97.8684 48.3525C97.8863 48.3342 97.9107 48.3237 97.9362 48.3234H131.779C131.805 48.3236 131.829 48.3339 131.847 48.352C131.865 48.3701 131.875 48.3946 131.875 48.42C131.875 48.4455 131.865 48.4699 131.847 48.488C131.829 48.5061 131.805 48.5164 131.779 48.5167Z" fill="#CCCCCC"/>
<path d="M131.779 50.8358H97.938C97.9124 50.8359 97.8879 50.8259 97.8696 50.808C97.8514 50.79 97.8411 50.7656 97.8408 50.74C97.8406 50.7145 97.8505 50.6899 97.8684 50.6716C97.8863 50.6533 97.9107 50.6429 97.9362 50.6425H131.779C131.805 50.6428 131.829 50.6531 131.847 50.6712C131.865 50.6893 131.875 50.7137 131.875 50.7392C131.875 50.7646 131.865 50.789 131.847 50.8071C131.829 50.8252 131.805 50.8355 131.779 50.8358Z" fill="#CCCCCC"/>
<path d="M131.779 53.1549H97.938C97.9124 53.155 97.8879 53.145 97.8696 53.1271C97.8514 53.1091 97.8411 53.0847 97.8408 53.0592C97.8406 53.0336 97.8505 53.009 97.8684 52.9907C97.8863 52.9724 97.9107 52.962 97.9362 52.9616H131.779C131.805 52.9619 131.829 52.9722 131.847 52.9903C131.865 53.0084 131.875 53.0328 131.875 53.0583C131.875 53.0837 131.865 53.1082 131.847 53.1263C131.829 53.1444 131.805 53.1546 131.779 53.1549Z" fill="#CCCCCC"/>
<path d="M125.842 30.0638V42.6258H94.351C92.6841 42.6837 91.0626 42.0776 89.8429 40.9406C88.6233 39.8037 87.9055 38.2291 87.8476 36.5633C87.7896 34.8974 88.3961 33.2768 89.5337 32.0579C90.6713 30.839 92.2469 30.1217 93.9137 30.0638C94.0594 30.0587 94.2052 30.0587 94.351 30.0638H125.842Z" fill="#F2F2F2"/>
<path d="M126.616 42.5291C126.616 42.6572 126.565 42.7801 126.474 42.8707C126.384 42.9613 126.261 43.0122 126.133 43.0123H93.7902C92.0336 43.0123 90.349 42.3149 89.1069 41.0736C87.8648 39.8322 87.167 38.1486 87.167 36.3931C87.167 34.6375 87.8648 32.9539 89.1069 31.7126C90.349 30.4713 92.0336 29.7739 93.7902 29.7739H126.133C126.196 29.7739 126.259 29.7864 126.318 29.8107C126.376 29.8349 126.43 29.8705 126.474 29.9154C126.519 29.9602 126.555 30.0135 126.579 30.0721C126.604 30.1308 126.616 30.1936 126.616 30.257C126.616 30.3205 126.604 30.3833 126.579 30.4419C126.555 30.5005 126.519 30.5538 126.474 30.5987C126.43 30.6435 126.376 30.6791 126.318 30.7034C126.259 30.7277 126.196 30.7402 126.133 30.7402H93.7902C92.29 30.7402 90.8513 31.3358 89.7906 32.3959C88.7298 33.456 88.1339 34.8938 88.1339 36.3931C88.1339 37.8923 88.7298 39.3302 89.7906 40.3903C90.8513 41.4504 92.29 42.046 93.7902 42.046H126.133C126.261 42.046 126.384 42.097 126.474 42.1875C126.565 42.2781 126.616 42.401 126.616 42.5291Z" fill="#3F3D56"/>
<path d="M125.843 32.9627H92.0015C91.9759 32.9628 91.9513 32.9528 91.9331 32.9349C91.9149 32.9169 91.9045 32.8925 91.9043 32.8669C91.9041 32.8414 91.914 32.8168 91.9319 32.7985C91.9497 32.7802 91.9742 32.7698 91.9997 32.7694H125.843C125.868 32.7697 125.892 32.78 125.91 32.7981C125.928 32.8162 125.938 32.8406 125.938 32.866C125.938 32.8915 125.928 32.9159 125.91 32.934C125.892 32.9521 125.868 32.9624 125.843 32.9627Z" fill="#CCCCCC"/>
<path d="M125.843 35.2818H92.0015C91.9759 35.282 91.9513 35.272 91.9331 35.254C91.9149 35.2361 91.9045 35.2117 91.9043 35.1861C91.9041 35.1605 91.914 35.1359 91.9319 35.1176C91.9497 35.0994 91.9742 35.0889 91.9997 35.0886H125.843C125.868 35.0888 125.892 35.0991 125.91 35.1172C125.928 35.1353 125.938 35.1597 125.938 35.1852C125.938 35.2107 125.928 35.2351 125.91 35.2532C125.892 35.2713 125.868 35.2816 125.843 35.2818Z" fill="#CCCCCC"/>
<path d="M125.843 37.601H92.0015C91.9759 37.6011 91.9513 37.5911 91.9331 37.5731C91.9149 37.5552 91.9045 37.5308 91.9043 37.5052C91.9041 37.4797 91.914 37.455 91.9319 37.4368C91.9497 37.4185 91.9742 37.408 91.9997 37.4077H125.843C125.868 37.408 125.892 37.4182 125.91 37.4363C125.928 37.4544 125.938 37.4789 125.938 37.5043C125.938 37.5298 125.928 37.5542 125.91 37.5723C125.892 37.5904 125.868 37.6007 125.843 37.601Z" fill="#CCCCCC"/>
<path d="M125.843 39.9201H92.0015C91.9759 39.9202 91.9513 39.9102 91.9331 39.8923C91.9149 39.8743 91.9045 39.8499 91.9043 39.8243C91.9041 39.7988 91.914 39.7742 91.9319 39.7559C91.9497 39.7376 91.9742 39.7272 91.9997 39.7268H125.843C125.868 39.7271 125.892 39.7374 125.91 39.7555C125.928 39.7736 125.938 39.798 125.938 39.8235C125.938 39.8489 125.928 39.8733 125.91 39.8914C125.892 39.9095 125.868 39.9198 125.843 39.9201Z" fill="#CCCCCC"/>
<path d="M162.477 100.968V90.0151C162.477 89.531 162.284 89.0667 161.942 88.7243C161.599 88.382 161.135 88.1897 160.65 88.1896H119.095C118.611 88.1897 118.146 88.382 117.804 88.7243C117.461 89.0667 117.269 89.531 117.269 90.0151V100.968H162.477Z" fill="#CCCCCC"/>
<path d="M162.477 105.075H117.269V119.223H162.477V105.075Z" fill="#CCCCCC"/>
<path d="M117.269 123.33V134.283C117.269 134.768 117.461 135.232 117.804 135.574C118.146 135.917 118.611 136.109 119.095 136.109H160.65C161.135 136.109 161.599 135.917 161.942 135.574C162.284 135.232 162.477 134.768 162.477 134.283V123.33H117.269Z" fill="#CCCCCC"/>
<path d="M139.644 96.4044C140.401 96.4044 141.014 95.7914 141.014 95.0352C141.014 94.2791 140.401 93.6661 139.644 93.6661C138.888 93.6661 138.274 94.2791 138.274 95.0352C138.274 95.7914 138.888 96.4044 139.644 96.4044Z" fill="white"/>
<path d="M139.644 114.659C140.401 114.659 141.014 114.046 141.014 113.29C141.014 112.534 140.401 111.921 139.644 111.921C138.888 111.921 138.274 112.534 138.274 113.29C138.274 114.046 138.888 114.659 139.644 114.659Z" fill="white"/>
<path d="M139.718 132.528C140.474 132.528 141.088 131.915 141.088 131.159C141.088 130.402 140.474 129.789 139.718 129.789C138.961 129.789 138.348 130.402 138.348 131.159C138.348 131.915 138.961 132.528 139.718 132.528Z" fill="white"/>
<path d="M157.351 75.7011V88.2631H125.859C124.193 88.3199 122.573 87.7132 121.354 86.5764C120.135 85.4396 119.418 83.8657 119.36 82.2006C119.302 80.5356 119.908 78.9156 121.045 77.6969C122.181 76.4781 123.756 75.7602 125.422 75.7011C125.568 75.696 125.713 75.696 125.859 75.7011H157.351Z" fill="#F2F2F2"/>
<path d="M158.125 88.1665C158.124 88.2946 158.074 88.4174 157.983 88.508C157.892 88.5986 157.769 88.6496 157.641 88.6496H125.299C123.542 88.65 121.858 87.9534 120.616 86.7129C119.373 85.4723 118.675 83.7895 118.674 82.0344C118.673 80.2792 119.369 78.5956 120.61 77.3535C121.851 76.1115 123.535 75.4128 125.291 75.4112H157.641C157.705 75.411 157.768 75.4234 157.826 75.4476C157.885 75.4718 157.939 75.5074 157.984 75.5522C158.029 75.5971 158.064 75.6504 158.089 75.7091C158.113 75.7678 158.126 75.8308 158.126 75.8943C158.126 75.9579 158.113 76.0208 158.089 76.0795C158.064 76.1382 158.029 76.1915 157.984 76.2364C157.939 76.2813 157.885 76.3169 157.826 76.3411C157.768 76.3653 157.705 76.3776 157.641 76.3775H125.299C123.8 76.3794 122.363 76.9759 121.304 78.0358C120.245 79.0957 119.65 80.5324 119.65 82.0304C119.65 83.5283 120.245 84.9651 121.304 86.025C122.363 87.0849 123.8 87.6813 125.299 87.6833H157.641C157.769 87.6833 157.892 87.7343 157.983 87.8249C158.074 87.9155 158.124 88.0383 158.125 88.1665Z" fill="#3F3D56"/>
<path d="M157.351 78.6H123.51C123.485 78.6001 123.46 78.5901 123.442 78.5722C123.424 78.5542 123.413 78.5298 123.413 78.5042C123.413 78.4787 123.423 78.4541 123.441 78.4358C123.459 78.4175 123.483 78.4071 123.509 78.4067H157.351C157.377 78.407 157.401 78.4173 157.419 78.4354C157.437 78.4535 157.447 78.4779 157.447 78.5034C157.447 78.5288 157.437 78.5532 157.419 78.5713C157.401 78.5894 157.377 78.5997 157.351 78.6H157.351Z" fill="#CCCCCC"/>
<path d="M157.351 80.9192H123.51C123.485 80.9193 123.46 80.9093 123.442 80.8914C123.424 80.8734 123.413 80.849 123.413 80.8234C123.413 80.7979 123.423 80.7732 123.441 80.755C123.459 80.7367 123.483 80.7262 123.509 80.7259H157.351C157.377 80.7261 157.401 80.7364 157.419 80.7545C157.437 80.7726 157.447 80.7971 157.447 80.8225C157.447 80.848 157.437 80.8724 157.419 80.8905C157.401 80.9086 157.377 80.9189 157.351 80.9192H157.351Z" fill="#CCCCCC"/>
<path d="M157.351 83.2383H123.51C123.485 83.2384 123.46 83.2284 123.442 83.2105C123.424 83.1925 123.413 83.1681 123.413 83.1425C123.413 83.117 123.423 83.0924 123.441 83.0741C123.459 83.0558 123.483 83.0454 123.509 83.045H157.351C157.377 83.0453 157.401 83.0556 157.419 83.0737C157.437 83.0918 157.447 83.1162 157.447 83.1417C157.447 83.1671 157.437 83.1916 157.419 83.2096C157.401 83.2277 157.377 83.238 157.351 83.2383H157.351Z" fill="#CCCCCC"/>
<path d="M157.351 85.5574H123.51C123.485 85.5575 123.46 85.5475 123.442 85.5296C123.424 85.5116 123.413 85.4872 123.413 85.4617C123.413 85.4361 123.423 85.4115 123.441 85.3932C123.459 85.3749 123.483 85.3645 123.509 85.3641H157.351C157.377 85.3644 157.401 85.3747 157.419 85.3928C157.437 85.4109 157.447 85.4353 157.447 85.4608C157.447 85.4862 157.437 85.5107 157.419 85.5288C157.401 85.5469 157.377 85.5571 157.351 85.5574H157.351Z" fill="#CCCCCC"/>
<path d="M120.366 25.8731H106.018C105.882 25.873 105.748 25.9042 105.626 25.9644L102.004 27.7762C101.885 27.8268 101.784 27.9113 101.712 28.0193C101.641 28.1272 101.603 28.2537 101.603 28.3832C101.603 28.5126 101.641 28.6391 101.712 28.747C101.784 28.855 101.885 28.9395 102.004 28.9901L105.626 30.8019C105.748 30.8621 105.882 30.8933 106.018 30.8932H120.366C120.564 30.9046 120.758 30.8378 120.907 30.7071C121.056 30.5764 121.147 30.3924 121.161 30.1949V26.5713C121.147 26.3739 121.056 26.1899 120.907 26.0592C120.758 25.9285 120.564 25.8617 120.366 25.8731Z" fill="#3F3D56"/>
<path d="M121.161 26.5714V30.1949C121.147 30.3924 121.056 30.5764 120.907 30.7071C120.758 30.8378 120.564 30.9047 120.366 30.8932H117.508V25.8731H120.366C120.564 25.8617 120.758 25.9286 120.907 26.0592C121.056 26.1899 121.147 26.3739 121.161 26.5714Z" fill="#141719"/>
<path d="M34.3466 96.8758C36.1941 97.5248 38.1777 97.6874 40.1063 97.3479C42.0349 97.0083 43.8435 96.1782 45.3579 94.9373C49.2147 91.7022 50.4239 86.3723 51.4078 81.4371C52.3778 76.5714 53.3479 71.7056 54.3179 66.8398L48.2252 71.0325C43.8437 74.0477 39.3635 77.1594 36.3297 81.5267C33.296 85.8939 31.9717 91.8557 34.4093 96.5813" fill="#E6E6E6"/>
<path d="M34.8673 114.549C34.2506 110.06 33.6166 105.513 34.0491 100.976C34.4333 96.9462 35.6634 93.0105 38.1677 89.7835C39.497 88.0738 41.1144 86.609 42.9474 85.4548C43.4254 85.1533 43.8653 85.9103 43.3894 86.2105C40.2179 88.2138 37.7648 91.1718 36.3838 94.6582C34.8586 98.5353 34.6137 102.762 34.8765 106.88C35.0355 109.371 35.3723 111.845 35.7118 114.316C35.7386 114.428 35.7219 114.546 35.6651 114.646C35.6083 114.746 35.5157 114.82 35.406 114.855C35.294 114.885 35.1747 114.869 35.0738 114.812C34.973 114.755 34.8988 114.66 34.8673 114.549L34.8673 114.549Z" fill="#F2F2F2"/>
<path d="M40.8066 106.605C41.599 107.809 42.6881 108.788 43.9691 109.449C45.2501 110.11 46.6798 110.43 48.1205 110.378C51.8228 110.202 54.9094 107.62 57.688 105.168L65.9063 97.9161L60.4671 97.656C56.5556 97.4689 52.5432 97.2944 48.8176 98.4999C45.092 99.7054 41.656 102.607 40.9748 106.461" fill="#E6E6E6"/>
<path d="M33.1245 117.129C36.0926 111.881 39.5354 106.047 45.687 104.183C47.3974 103.666 49.1909 103.481 50.9709 103.638C51.5319 103.686 51.3918 104.55 50.8318 104.502C47.8482 104.254 44.8703 105.042 42.3995 106.732C40.0219 108.349 38.1706 110.598 36.6038 112.982C35.644 114.443 34.7844 115.965 33.9245 117.486C33.6497 117.972 32.8465 117.621 33.1245 117.129L33.1245 117.129Z" fill="#F2F2F2"/>
<path d="M28.3688 122.654C28.4688 121.496 28.8849 120.388 29.5717 119.449C30.2584 118.511 31.1896 117.78 32.2638 117.334V114.299H37.3561V117.429C38.3774 117.897 39.2564 118.627 39.9033 119.545C40.5503 120.463 40.9422 121.536 41.039 122.654L42.2364 136.565H27.1714L28.3688 122.654Z" fill="#F2F2F2"/>
<path d="M201.552 56.2314L200.037 55.5939L198.998 48.0042H185.159L184.032 55.5629L182.677 56.2401C182.612 56.2725 182.56 56.3259 182.529 56.3915C182.499 56.4571 182.491 56.5312 182.508 56.6017C182.524 56.6722 182.564 56.7351 182.621 56.78C182.678 56.825 182.748 56.8494 182.821 56.8494H201.427C201.501 56.8495 201.573 56.8238 201.631 56.7767C201.688 56.7297 201.728 56.6642 201.742 56.5915C201.757 56.5187 201.746 56.443 201.711 56.3774C201.677 56.3118 201.62 56.2602 201.552 56.2314Z" fill="#E6E6E6"/>
<path d="M226.145 49.014H158.164C157.807 49.0132 157.465 48.8711 157.213 48.6187C156.961 48.3664 156.82 48.0245 156.82 47.668V38.0875H227.489V47.668C227.489 48.0245 227.347 48.3664 227.095 48.6187C226.843 48.871 226.502 49.0132 226.145 49.014Z" fill="#CCCCCC"/>
<path d="M227.56 42.6155H156.758V1.6226C156.758 1.1924 156.93 0.779968 157.234 0.475778C157.538 0.171588 157.951 0.000481363 158.381 0H225.936C226.367 0.000481355 226.779 0.171589 227.084 0.475778C227.388 0.779968 227.559 1.1924 227.56 1.6226L227.56 42.6155Z" fill="#3F3D56"/>
<path d="M223.331 39.6402H160.987C160.655 39.6398 160.337 39.5079 160.102 39.2734C159.867 39.0389 159.735 38.7209 159.735 38.3893V4.22618C159.735 3.89452 159.867 3.57654 160.102 3.34202C160.337 3.10749 160.655 2.97557 160.987 2.97519H223.331C223.663 2.97557 223.981 3.10749 224.216 3.34202C224.45 3.57654 224.582 3.89452 224.583 4.22618V38.3893C224.582 38.7209 224.45 39.0389 224.216 39.2734C223.981 39.5079 223.663 39.6398 223.331 39.6402Z" fill="white"/>
<path d="M206.91 51.6946C207.313 51.3231 207.792 51.0442 208.314 50.8777C208.836 50.7113 209.388 50.6612 209.931 50.731C210.475 50.8009 210.996 50.989 211.459 51.2821C211.922 51.5752 212.315 51.9662 212.61 52.4274L221.043 50.9291L223.204 55.8285L211.266 57.7773C210.457 58.2218 209.514 58.3545 208.615 58.1503C207.715 57.9461 206.921 57.4192 206.385 56.6694C205.848 55.9197 205.605 54.9991 205.702 54.0822C205.798 53.1654 206.228 52.3158 206.91 51.6946Z" fill="#FFB6B6"/>
<path d="M214.718 57.9505L223.509 57.841L224.622 57.8259L242.508 57.6007C242.508 57.6007 247.366 52.9696 251.595 48.2016L251.002 43.9164C250.424 39.7109 248.337 35.8587 245.128 33.0765C239.071 37.1217 235.558 45.1287 235.558 45.1287L224.468 47.7797L223.358 48.0448L216.467 49.6905L214.718 57.9505Z" fill="#141719"/>
<path d="M259.722 84.289H243.312C243.312 84.9917 225.373 85.5621 225.373 85.5621C224.977 85.8598 224.617 86.2015 224.298 86.5805C223.341 87.7219 222.817 89.1647 222.82 90.6542V91.6727C222.821 93.3607 223.492 94.9793 224.686 96.1729C225.881 97.3665 227.5 98.0373 229.189 98.0379H259.722C261.411 98.0365 263.03 97.3654 264.224 96.172C265.418 94.9786 266.09 93.3604 266.091 91.6727V90.6542C266.089 88.9668 265.417 87.3491 264.223 86.1559C263.029 84.9627 261.411 84.2914 259.722 84.289Z" fill="#E4E4E4"/>
<path d="M247.788 97.7851H241.165V135.995H247.788V97.7851Z" fill="#E4E4E4"/>
<path d="M222.312 135.763C222.312 136.478 232.349 136.039 244.731 136.039C257.113 136.039 267.15 136.478 267.15 135.763C267.15 135.047 257.113 129.375 244.731 129.375C232.349 129.375 222.312 135.047 222.312 135.763Z" fill="#E4E4E4"/>
<path d="M217.863 131.397L212.933 131.396L210.588 112.393L217.863 112.394L217.863 131.397Z" fill="#FFB6B6"/>
<path d="M219.12 136.172L203.224 136.172V135.971C203.224 134.331 203.876 132.758 205.036 131.599C206.197 130.439 207.77 129.788 209.411 129.788H209.411L219.12 129.788L219.12 136.172Z" fill="#2F2E41"/>
<path d="M203.293 131.397L198.363 131.396L196.018 112.393L203.293 112.394L203.293 131.397Z" fill="#FFB6B6"/>
<path d="M204.55 136.172L188.654 136.172V135.971C188.654 134.331 189.306 132.758 190.467 131.599C191.627 130.439 193.2 129.788 194.841 129.788H194.842L204.55 129.788L204.55 136.172Z" fill="#2F2E41"/>
<path d="M247.452 21.993C252.186 21.993 256.023 18.1577 256.023 13.4267C256.023 8.69567 252.186 4.86042 247.452 4.86042C242.718 4.86042 238.88 8.69567 238.88 13.4267C238.88 18.1577 242.718 21.993 247.452 21.993Z" fill="#FFB6B6"/>
<path d="M261.325 72.1195C261.325 72.1195 264.201 87.3181 253.258 89.2535C242.315 91.189 226.519 92.5492 226.519 92.5492L219.426 125.625L209.896 124.774C209.896 124.774 211.163 84.9589 214.28 81.8439C217.397 78.7289 237.097 69.4019 237.097 69.4019L261.325 72.1195Z" fill="#2F2E41"/>
<path d="M239.953 65.7497L235.167 70.5479C235.167 70.5479 200.611 76.1107 199.278 84.0872C197.265 96.1298 194.888 122.317 194.888 122.317L205.277 121.539L209.351 91.7705L225.975 87.9914L244.888 77.6906L239.953 65.7497Z" fill="#2F2E41"/>
<path d="M255.7 8.31328C254.854 6.71782 253.779 3.53809 252.071 2.94837C251.122 2.63408 250.142 2.42539 249.148 2.32608L246.245 3.44188L247.825 2.21388C247.517 2.19557 247.21 2.1806 246.903 2.16897L244.944 2.9218L245.946 2.14292C244.12 2.12419 242.236 2.31393 240.821 3.42483C239.615 4.37187 238.42 7.95945 238.226 9.48015C238.02 10.9349 238.092 12.4157 238.439 13.8434L238.935 14.3148C239.109 13.9172 239.239 13.5022 239.324 13.0769C239.502 12.2821 239.844 11.5332 240.327 10.8776C240.811 10.2221 241.426 9.67447 242.133 9.26956L242.16 9.25434C242.991 8.78643 244.001 8.808 244.955 8.84231L249.486 9.00525C250.576 9.04446 251.75 9.11339 252.599 9.79675C253.139 10.3009 253.564 10.9157 253.844 11.5992C254.267 12.451 255.092 15.6637 255.092 15.6637C255.092 15.6637 255.559 15.0573 255.782 15.5086C256.141 14.331 256.359 13.115 256.432 11.8861C256.504 10.6517 256.251 9.42012 255.7 8.31328Z" fill="#2F2E41"/>
<path d="M285.679 17.1886C285.132 17.2246 284.6 17.3799 284.12 17.6437C283.64 17.9075 283.223 18.2733 282.9 18.7154C282.576 19.1574 282.354 19.665 282.248 20.2023C282.142 20.7395 282.155 21.2935 282.287 21.8251L275.394 26.9065L277.462 31.8458L287.095 24.5333C287.974 24.2534 288.72 23.6609 289.191 22.8682C289.662 22.0755 289.826 21.1377 289.651 20.2323C289.477 19.327 288.976 18.5171 288.244 17.9561C287.512 17.3952 286.599 17.1221 285.679 17.1886Z" fill="#FFB6B6"/>
<path d="M284.569 27.5622L267.29 46.7413C267.29 46.7413 259.027 44.0976 252.636 41.2314L249.765 32.4188C249.098 30.3744 248.814 28.2248 248.926 26.0775C257.785 23.7215 268.089 32.4879 268.089 32.4879L281.024 22.3625L284.569 27.5622Z" fill="#141719"/>
<path d="M244.25 73.5361C241.167 72.4718 237.98 71.3714 234.541 70.9583L234.394 70.9404L234.434 70.7976C237.994 58.3078 237.105 50.3182 235.361 38.3167C234.99 35.728 235.467 33.0888 236.72 30.793C237.973 28.4973 239.935 26.6681 242.314 25.5785L242.335 25.5689L252.155 24.9453L252.178 24.9439L259.32 27.0432C260.347 27.3474 261.247 27.9799 261.88 28.8438C262.513 29.7076 262.846 30.7552 262.826 31.8259C262.749 35.7728 262.913 40.1794 263.087 44.8447C263.477 55.3109 263.88 66.1334 261.593 73.1554L261.581 73.1922L261.55 73.2162C259.448 74.9274 256.814 75.852 254.103 75.8307C250.897 75.8307 247.626 74.7013 244.25 73.5361Z" fill="#141719"/>
<path d="M315.543 137H0.456648C0.335538 137 0.219389 136.952 0.133751 136.866C0.0481132 136.781 0 136.665 0 136.544C0 136.423 0.0481132 136.307 0.133751 136.221C0.219389 136.135 0.335538 136.087 0.456648 136.087H315.543C315.664 136.087 315.781 136.135 315.866 136.221C315.952 136.307 316 136.423 316 136.544C316 136.665 315.952 136.781 315.866 136.866C315.781 136.952 315.664 137 315.543 137Z" fill="#CCCCCC"/>
</g>
<defs>
<clipPath id="clip0">
<rect width="316" height="137" fill="white"/>
</clipPath>
</defs>
</svg>
